# xmcd CD database file
#
# Track frame offsets:
#	150
#	14966
#	33054
#	48824
#	65254
#	83781
#	101947
#	116933
#	135736
#	151737
#	166046
#	180503
#
# Disc length: 2635 seconds
#
# Revision: 0
# Processed by: cddbd v1.5.2PL0 Copyright (c) Steve Scherf et al.
# Submitted via: CDex 1.70beta2
#
DISCID=940a490c
DTITLE=chalee tennison  - this woman s heart 
DYEAR=1900
DGENRE=Country
TTITLE0=Chalee Tennison /yes i was 
TTITLE1=Chalee Tennison - omebody Save Me
TTITLE2=Chalee Tennison - I'm Healing
TTITLE3=Chalee Tennison - Making Up With You
TTITLE4=Chalee Tennison - This Woman's Heart
TTITLE5=Chalee Tennison - Go Back
TTITLE6=Chalee Tennison - Break It Even
TTITLE7=Chalee Tennison - We Don't Have Pray
TTITLE8=Chalee Tennison - What I Tell Myself
TTITLE9=Chalee Tennison - You Can't Say That
TTITLE10=Chalee Tennison - I Ain't
TTITLE11=Chalee Tennison - Under Your Skin
EXTD=
EXTT0=
EXTT1=
EXTT2=
EXTT3=
EXTT4=
EXTT5=
EXTT6=
EXTT7=
EXTT8=
EXTT9=
EXTT10=
EXTT11=
PLAYORDER=
